<svg width="140" height="33" viewBox="0 0 140 33" fill="none" xmlns="http://www.w3.org/2000/svg">
<path fill-rule="evenodd" clip-rule="evenodd" d="M39.276 4.32544C38.5763 4.32544 38.009 4.87873 38.009 5.56125V24.0984C38.009 24.781 38.5763 25.3343 39.276 25.3343H79.819C80.519 25.3343 81.0859 24.781 81.0859 24.0984V5.56125C81.0859 4.87873 80.519 4.32544 79.819 4.32544H39.276ZM45.8889 17.7854L43.9552 22.2468H41.886L48.9648 6.63171L56.0434 22.2468H53.9743L52.0304 17.7854H45.8889ZM51.3004 16.0858H46.635L48.9648 10.732L51.3004 16.0858ZM64.2144 22.2468V16.2982C64.2144 15.76 64.1345 15.3139 63.9749 14.9598C63.8153 14.5915 63.5758 14.3154 63.2562 14.1312C62.9368 13.9471 62.5448 13.855 62.0801 13.855C61.5719 13.855 61.1218 13.9613 60.7297 14.1737C60.3521 14.372 60.0545 14.6553 59.8367 15.0235C59.6334 15.3918 59.5318 15.8166 59.5318 16.2982V22.2468H57.7893V12.4741H59.5318V14.0038C59.8657 13.4089 60.2795 12.9698 60.7733 12.6866C61.2815 12.4033 61.8623 12.2616 62.5157 12.2616C63.2272 12.2616 63.8368 12.4175 64.3455 12.729C64.8535 13.0406 65.2457 13.4797 65.5212 14.0463C65.812 14.6128 65.9571 15.2926 65.9571 16.0858V22.2468H64.2144ZM67.708 12.4741V14.0675H69.3418V22.2468H71.0839V14.0675H72.7176V12.4741H71.0839V9.07492H69.3418V12.4741H67.708ZM74.8138 9.2661C74.5813 9.02536 74.4654 8.74916 74.4654 8.43755C74.4654 8.11179 74.5813 7.83564 74.8138 7.609C75.0602 7.38241 75.3434 7.26908 75.6633 7.26908C75.9972 7.26908 76.2803 7.38241 76.5122 7.609C76.7447 7.83564 76.8612 8.11179 76.8612 8.43755C76.8612 8.74916 76.7447 9.02536 76.5122 9.2661C76.2803 9.49274 75.9972 9.60601 75.6633 9.60601C75.3434 9.60601 75.0602 9.49274 74.8138 9.2661ZM74.7917 22.2468V12.4741H76.5344V22.2468H74.7917Z" fill="#252525"/>
<path d="M98.6089 15.6616C98.6089 14.8542 98.4784 14.1673 98.2168 13.6008C97.9697 13.0201 97.6067 12.581 97.1278 12.2836C96.6483 11.9861 96.068 11.8374 95.3851 11.8374C94.7174 11.8374 94.1219 11.9932 93.5993 12.3048C93.0767 12.6022 92.6408 13.0555 92.2924 13.6645C92.1474 13.2679 91.9294 12.9351 91.6393 12.666C91.3631 12.3969 91.0362 12.1915 90.6587 12.0499C90.2811 11.9083 89.8605 11.8374 89.3955 11.8374C88.9888 11.8374 88.6112 11.9012 88.2628 12.0286C87.9144 12.142 87.6021 12.319 87.3265 12.5597C87.0649 12.8005 86.8324 13.105 86.6297 13.4733V12.0499H84.887V21.8226H86.6297V15.874C86.6297 15.3641 86.7241 14.925 86.9129 14.5568C87.1016 14.1885 87.3702 13.9124 87.7186 13.7283C88.0671 13.53 88.4807 13.4308 88.9596 13.4308C89.3955 13.4308 89.7515 13.5229 90.0271 13.707C90.3178 13.877 90.5282 14.139 90.6587 14.493C90.8044 14.8472 90.8766 15.3074 90.8766 15.874V21.8226H92.6193V15.874C92.6193 15.3641 92.7137 14.925 92.9025 14.5568C93.0912 14.1885 93.3598 13.9124 93.7083 13.7283C94.0567 13.53 94.4703 13.4308 94.9499 13.4308C95.3851 13.4308 95.7411 13.5229 96.0167 13.707C96.3075 13.877 96.5178 14.139 96.6483 14.493C96.794 14.8472 96.8662 15.3074 96.8662 15.874V21.8226H98.6089V15.6616Z" fill="#252525"/>
<path d="M102.666 18.8058C102.666 18.4517 102.753 18.1472 102.927 17.8923C103.101 17.6373 103.363 17.439 103.712 17.2974C104.074 17.1558 104.539 17.085 105.105 17.085C105.715 17.085 106.289 17.1629 106.826 17.3187C107.363 17.4603 107.886 17.7011 108.394 18.041V17.0425C108.292 16.915 108.096 16.7521 107.806 16.5538C107.516 16.3414 107.123 16.1572 106.63 16.0015C106.151 15.8315 105.548 15.7465 104.822 15.7465C104.009 15.7465 103.305 15.8811 102.709 16.1502C102.128 16.4051 101.679 16.7663 101.359 17.2337C101.054 17.7011 100.901 18.2534 100.901 18.8908C100.901 19.5565 101.062 20.123 101.381 20.5904C101.7 21.0578 102.121 21.419 102.644 21.6739C103.181 21.9146 103.755 22.0351 104.365 22.0351C104.916 22.0351 105.468 21.9359 106.02 21.7376C106.586 21.5393 107.058 21.2348 107.436 20.8241C107.828 20.4133 108.024 19.8964 108.024 19.2732L107.675 17.9985C107.675 18.5084 107.545 18.9616 107.283 19.3582C107.037 19.7406 106.695 20.038 106.259 20.2505C105.839 20.4629 105.359 20.5692 104.822 20.5692C104.401 20.5692 104.024 20.5054 103.689 20.3779C103.37 20.2363 103.116 20.031 102.927 19.7619C102.753 19.4927 102.666 19.174 102.666 18.8058ZM102.405 14.3019C102.564 14.1885 102.782 14.054 103.058 13.8982C103.334 13.7424 103.668 13.6078 104.06 13.4946C104.467 13.3812 104.916 13.3246 105.41 13.3246C105.715 13.3246 106.005 13.3529 106.282 13.4095C106.557 13.4662 106.797 13.5583 107 13.6857C107.218 13.8132 107.385 13.9902 107.501 14.2169C107.618 14.4293 107.675 14.7055 107.675 15.0454V21.8226H109.418V14.8118C109.418 14.1744 109.251 13.6362 108.917 13.1971C108.598 12.758 108.14 12.4252 107.545 12.1986C106.964 11.9578 106.282 11.8374 105.497 11.8374C104.568 11.8374 103.769 11.972 103.101 12.2411C102.448 12.5102 101.933 12.7793 101.555 13.0484L102.405 14.3019Z" fill="#252525"/>
<path d="M110.843 12.0499V13.6432H115.853V12.0499H110.843ZM112.477 8.65063V21.8226H114.219V8.65063H112.477Z" fill="#252525"/>
<path d="M116.076 12.0499V13.6432H121.086V12.0499H116.076ZM117.71 8.65063V21.8226H119.452V8.65063H117.71Z" fill="#252525"/>
<path d="M126.71 22.0351C127.784 22.0351 128.714 21.8297 129.497 21.419C130.296 20.994 130.957 20.3709 131.48 19.5494L130.064 18.6784C129.701 19.2732 129.258 19.7193 128.735 20.0167C128.213 20.3001 127.61 20.4417 126.927 20.4417C126.245 20.4417 125.664 20.3001 125.185 20.0167C124.706 19.7335 124.343 19.3228 124.096 18.7846C123.849 18.2463 123.726 17.5949 123.726 16.83C123.726 16.2777 123.799 15.7819 123.944 15.3428C124.089 14.9038 124.3 14.5356 124.575 14.2382C124.851 13.9407 125.185 13.7141 125.577 13.5583C125.983 13.4025 126.434 13.3246 126.927 13.3246C127.494 13.3246 127.988 13.4449 128.408 13.6857C128.83 13.9265 129.157 14.2593 129.389 14.6843C129.635 15.1092 129.759 15.6119 129.759 16.1927C129.759 16.2918 129.737 16.4193 129.694 16.5751C129.65 16.7167 129.606 16.8229 129.563 16.8937L130.26 15.9165H123.073V17.3612H131.632C131.632 17.3328 131.632 17.2691 131.632 17.1699C131.647 17.0566 131.654 16.9504 131.654 16.8513C131.654 15.8173 131.465 14.925 131.087 14.1744C130.71 13.4238 130.166 12.8501 129.454 12.4535C128.757 12.0428 127.915 11.8374 126.927 11.8374C126.187 11.8374 125.511 11.9649 124.902 12.2198C124.292 12.4606 123.769 12.8076 123.334 13.2609C122.898 13.6999 122.557 14.231 122.31 14.8542C122.078 15.4774 121.961 16.1714 121.961 16.9362C121.961 17.9418 122.158 18.827 122.549 19.5919C122.956 20.3567 123.515 20.9586 124.227 21.3977C124.953 21.8226 125.781 22.0351 126.71 22.0351Z" fill="#252525"/>
<path d="M135.785 12.0499H134.042V21.8226H135.785V12.0499ZM138.812 13.9194L139.771 12.5173C139.509 12.2482 139.219 12.0712 138.9 11.9861C138.594 11.887 138.26 11.8374 137.897 11.8374C137.432 11.8374 136.975 12.0145 136.525 12.3686C136.075 12.7226 135.705 13.2042 135.414 13.8132C135.139 14.4081 135 15.095 135 15.874H135.785C135.785 15.4066 135.828 14.9888 135.915 14.6205C136.017 14.2523 136.191 13.962 136.438 13.7495C136.685 13.537 137.026 13.4308 137.462 13.4308C137.752 13.4308 137.992 13.4733 138.181 13.5583C138.369 13.6291 138.58 13.7495 138.812 13.9194Z" fill="#252525"/>
<path fill-rule="evenodd" clip-rule="evenodd" d="M21.0531 22.7723C23.1602 22.7723 24.8683 21.1062 24.8683 19.0509C24.8683 16.9957 23.1602 15.3296 21.0531 15.3296C18.946 15.3296 17.2379 16.9957 17.2379 19.0509C17.2379 21.1062 18.946 22.7723 21.0531 22.7723ZM26.1353 19.0509C26.1353 21.7887 23.8599 24.0081 21.0531 24.0081C18.2463 24.0081 15.9709 21.7887 15.9709 19.0509C15.9709 16.3131 18.2463 14.0938 21.0531 14.0938C23.8599 14.0938 26.1353 16.3131 26.1353 19.0509Z" fill="#252525"/>
<path fill-rule="evenodd" clip-rule="evenodd" d="M17.9251 21.6144C18.1783 21.9177 18.1316 22.3637 17.8207 22.6107C15.1817 24.7075 12.4333 26.1707 10.0037 26.8099C7.60841 27.4402 5.32085 27.3117 3.87318 25.8997C2.266 24.332 2.27606 21.7601 3.19126 19.1138C3.31944 18.7433 3.73133 18.5442 4.11127 18.6692C4.4912 18.7942 4.6953 19.196 4.56713 19.5666C3.69848 22.0782 3.90499 23.9277 4.89993 24.8982C5.79345 25.7698 7.41013 26.0255 9.62555 25.4425C11.8066 24.8686 14.3755 23.5213 16.9036 21.5126C17.2146 21.2656 17.6719 21.3111 17.9251 21.6144Z" fill="#252525"/>
<path fill-rule="evenodd" clip-rule="evenodd" d="M12.8584 7.74879C12.6148 7.43811 12.6755 6.99365 12.9939 6.756C15.526 4.86668 18.1273 3.56593 20.4232 3.02593C22.6917 2.49239 24.8434 2.66874 26.2264 4.01778C27.8336 5.58544 27.8235 8.15748 26.9083 10.8037C26.7802 11.1743 26.3682 11.3734 25.9883 11.2483C25.6084 11.1233 25.4043 10.7215 25.5325 10.351C26.4011 7.83932 26.1946 5.98973 25.1996 5.01928C24.3466 4.18726 22.8365 3.91527 20.7635 4.40281C18.7181 4.8839 16.2984 6.07365 13.8762 7.88096C13.5577 8.11861 13.102 8.05941 12.8584 7.74879Z" fill="#252525"/>
<path fill-rule="evenodd" clip-rule="evenodd" d="M15.2458 10.5531C15.2458 13.2909 12.9705 15.5103 10.1637 15.5103C7.35692 15.5103 5.08154 13.2909 5.08154 10.5531C5.08154 7.81534 7.35692 5.59595 10.1637 5.59595C12.9705 5.59595 15.2458 7.81534 15.2458 10.5531ZM9.65532 8.07418H10.6717V10.0569H12.7038V11.0483H10.6717V13.0313H9.65532V11.0483H7.62165V10.0569H9.65532V8.07418Z" fill="#252525"/>
<path d="M22.8689 19.476V18.4846H19.2388V19.476H22.8689Z" fill="#252525"/>
</svg>
