<svg width="28" height="28" viewBox="0 0 28 28" fill="none" xmlns="http://www.w3.org/2000/svg">
<path d="M27.581 17.3868C25.7109 24.8868 18.1138 29.4511 10.612 27.5809C3.11335 25.711 -1.45158 18.1143 0.419371 10.6148C2.28857 3.11392 9.88569 -1.45091 17.3852 0.418944C24.8865 2.2888 29.451 9.88635 27.581 17.3868Z" fill="url(#paint0_linear_12_796)"/>
<path d="M20.1575 12.022C20.4362 10.1592 19.0177 9.15773 17.078 8.48968L17.7072 5.9662L16.171 5.58339L15.5584 8.04037C15.1546 7.93974 14.7398 7.84481 14.3276 7.75075L14.9445 5.27758L13.4092 4.89478L12.7796 7.41737C12.4453 7.34125 12.1171 7.266 11.7986 7.18681L11.8003 7.17894L9.68173 6.65001L9.27306 8.29062C9.27306 8.29062 10.4129 8.5518 10.3888 8.56799C11.011 8.7233 11.1234 9.13498 11.1046 9.46135C9.3807 16.3742 11.1046 9.46135 9.3807 16.3742C9.30457 16.5632 9.11161 16.8467 8.67669 16.7391C8.692 16.7614 7.56007 16.4604 7.56007 16.4604L6.79742 18.2187L8.79657 18.717C9.16849 18.8102 9.53297 18.9078 9.89175 18.9996L9.256 21.552L10.7905 21.9348L11.4201 19.4096C11.8393 19.5233 12.2462 19.6283 12.6444 19.7272L12.0169 22.2406L13.5531 22.6234L14.1889 20.0759C16.8085 20.5716 18.7783 20.3716 19.6075 18.0026C20.2756 16.0951 19.5742 14.9948 18.1959 14.2773C19.1997 14.0459 19.9558 13.3857 20.1575 12.022ZM16.6475 16.9434C16.1727 18.8509 12.9607 17.8197 11.9193 17.5611L12.7629 14.1797C13.8043 14.4396 17.1437 14.9541 16.6475 16.9434ZM17.1226 11.9945C16.6895 13.7296 14.0161 12.848 13.1488 12.6319L13.9137 9.56504C14.7809 9.78116 17.5738 10.1845 17.1226 11.9945Z" fill="white"/>
<defs>
<linearGradient id="paint0_linear_12_796" x1="0" y1="0" x2="0" y2="28" gradientUnits="userSpaceOnUse">
<stop stop-color="#F9AA4B"/>
<stop offset="1" stop-color="#F7931A"/>
</linearGradient>
</defs>
</svg>
