<svg width="52" height="52" viewBox="0 0 52 52" fill="none" xmlns="http://www.w3.org/2000/svg">
<path fill-rule="evenodd" clip-rule="evenodd" d="M38.2618 18.2152C38.7335 18.645 38.7675 19.3759 38.3377 19.8476L24.3554 35.1941L15.2821 25.9745C14.8345 25.5197 14.8403 24.788 15.2952 24.3404C15.7501 23.8927 16.4817 23.8986 16.9294 24.3535L24.2907 31.8335L36.6294 18.2911C37.0592 17.8194 37.79 17.7854 38.2618 18.2152Z" fill="#31B047"/>
<path fill-rule="evenodd" clip-rule="evenodd" d="M26 49.6889C39.083 49.6889 49.6889 39.083 49.6889 26C49.6889 12.917 39.083 2.31111 26 2.31111C12.917 2.31111 2.31111 12.917 2.31111 26C2.31111 39.083 12.917 49.6889 26 49.6889ZM26 52C40.3594 52 52 40.3594 52 26C52 11.6406 40.3594 0 26 0C11.6406 0 0 11.6406 0 26C0 40.3594 11.6406 52 26 52Z" fill="#31B047"/>
</svg>
